<svg xmlns="http://www.w3.org/2000/svg" viewBox="0 0 64 64">
  <rect width="64" height="64" rx="12" fill="#0a66c2"/>
  <circle cx="25" cy="23" r="11" fill="#ffd166"/>
  <g stroke="#ffd166" stroke-linecap="round" stroke-width="4">
    <path d="M25 6v6"/>
    <path d="M25 34v6"/>
    <path d="M8 23h6"/>
    <path d="M36 23h6"/>
    <path d="M13 11l4 4"/>
    <path d="M37 35l4 4"/>
    <path d="M37 11l-4 4"/>
    <path d="M13 39l4-4"/>
  </g>
  <path d="M23 45h24a10 10 0 0 0 1-20 14 14 0 0 0-26-4 11 11 0 0 0 1 24z" fill="#f7fbff"/>
  <path d="M22 45h25a10 10 0 0 0 9-6H21a8 8 0 0 1 1 6z" fill="#d7ecff" opacity=".85"/>
</svg>
